<?xml version="1.0" encoding="UTF-8"?>
<svg id="Layer_1" data-name="Layer 1" xmlns="http://www.w3.org/2000/svg" viewBox="0 0 34.3 38">
  <defs>
    <style>
      .cls-1 {
        fill: #b3b3b3;
        stroke: #231f20;
        stroke-width: 2px;
      }

      .cls-1, .cls-2 {
        stroke-linecap: round;
        stroke-linejoin: round;
      }

      .cls-2 {
        fill: none;
        stroke: #5c5c5c;
      }
    </style>
  </defs>
  <polygon class="cls-2" points="17.06 1 17.06 17.73 33.3 27.36 33.3 10.63 17.06 1"/>
  <polygon class="cls-2" points="1 10.52 17.06 1 17.06 17.73 1 27.25 1 10.52"/>
  <polygon class="cls-2" points="1 27.25 17.06 37 33.3 27.36 17.06 17.73 1 27.25"/>
  <polygon class="cls-1" points="1 10.52 17.06 20.27 33.3 10.63 17.06 1 1 10.52"/>
  <polygon class="cls-1" points="33.3 10.63 17.06 20.27 17.06 37 33.3 27.36 33.3 10.63"/>
  <polygon class="cls-1" points="17.06 37 1 27.25 1 10.52 17.06 20.27 17.06 37"/>
</svg>